<svg width="143" height="92" viewBox="0 0 143 92" fill="none" xmlns="http://www.w3.org/2000/svg">
<path d="M26.3074 19.9V26.75H12.0074V34.15H22.7074V40.8H12.0074V55H3.45742V19.9H26.3074ZM122.564 19.9C126.264 19.9 129.498 20.6333 132.264 22.1C135.031 23.5667 137.164 25.6333 138.664 28.3C140.198 30.9333 140.964 33.9833 140.964 37.45C140.964 40.8833 140.198 43.9333 138.664 46.6C137.164 49.2667 135.014 51.3333 132.214 52.8C129.448 54.2667 126.231 55 122.564 55H109.414V19.9H122.564ZM122.014 47.6C125.248 47.6 127.764 46.7167 129.564 44.95C131.364 43.1833 132.264 40.6833 132.264 37.45C132.264 34.2167 131.364 31.7 129.564 29.9C127.764 28.1 125.248 27.2 122.014 27.2H117.964V47.6H122.014Z" fill="black"/>
<path d="M47.4012 55.35C44.1012 55.35 41.0678 54.5833 38.3012 53.05C35.5678 51.5167 33.3845 49.3833 31.7512 46.65C30.1512 43.8833 29.3512 40.7833 29.3512 37.35C29.3512 33.9167 30.1512 30.8333 31.7512 28.1C33.3845 25.3667 35.5678 23.2333 38.3012 21.7C41.0678 20.1667 44.1012 19.4 47.4012 19.4C50.7012 19.4 53.7178 20.1667 56.4512 21.7C59.2178 23.2333 61.3845 25.3667 62.9512 28.1C64.5512 30.8333 65.3512 33.9167 65.3512 37.35C65.3512 40.7833 64.5512 43.8833 62.9512 46.65C61.3512 49.3833 59.1845 51.5167 56.4512 53.05C53.7178 54.5833 50.7012 55.35 47.4012 55.35ZM47.4012 47.55C50.2012 47.55 52.4345 46.6167 54.1012 44.75C55.8012 42.8833 56.6512 40.4167 56.6512 37.35C56.6512 34.25 55.8012 31.7833 54.1012 29.95C52.4345 28.0833 50.2012 27.15 47.4012 27.15C44.5678 27.15 42.3012 28.0667 40.6012 29.9C38.9345 31.7333 38.1012 34.2167 38.1012 37.35C38.1012 40.45 38.9345 42.9333 40.6012 44.8C42.3012 46.6333 44.5678 47.55 47.4012 47.55ZM86.7078 55.35C83.4078 55.35 80.3745 54.5833 77.6078 53.05C74.8745 51.5167 72.6911 49.3833 71.0578 46.65C69.4578 43.8833 68.6578 40.7833 68.6578 37.35C68.6578 33.9167 69.4578 30.8333 71.0578 28.1C72.6911 25.3667 74.8745 23.2333 77.6078 21.7C80.3745 20.1667 83.4078 19.4 86.7078 19.4C90.0078 19.4 93.0245 20.1667 95.7578 21.7C98.5245 23.2333 100.691 25.3667 102.258 28.1C103.858 30.8333 104.658 33.9167 104.658 37.35C104.658 40.7833 103.858 43.8833 102.258 46.65C100.658 49.3833 98.4911 51.5167 95.7578 53.05C93.0245 54.5833 90.0078 55.35 86.7078 55.35ZM86.7078 47.55C89.5078 47.55 91.7411 46.6167 93.4078 44.75C95.1078 42.8833 95.9578 40.4167 95.9578 37.35C95.9578 34.25 95.1078 31.7833 93.4078 29.95C91.7411 28.0833 89.5078 27.15 86.7078 27.15C83.8745 27.15 81.6078 28.0667 79.9078 29.9C78.2411 31.7333 77.4078 34.2167 77.4078 37.35C77.4078 40.45 78.2411 42.9333 79.9078 44.8C81.6078 46.6333 83.8745 47.55 86.7078 47.55Z" fill="#FFB200"/>
<path d="M12.8923 74.298H14.1663V84H12.8923L7.76834 76.3V84H6.49434V74.298H7.76834L12.8923 81.998V74.298ZM19.5457 83.076C20.2644 83.076 20.8851 82.8193 21.4077 82.306C21.9397 81.7833 22.2057 81.0647 22.2057 80.15C22.2057 79.2353 21.9537 78.5213 21.4497 78.008C20.9457 77.4947 20.3297 77.238 19.6017 77.238C18.8831 77.238 18.2811 77.4947 17.7957 78.008C17.3104 78.5213 17.0677 79.24 17.0677 80.164C17.0677 81.0787 17.3011 81.7927 17.7677 82.306C18.2344 82.8193 18.8271 83.076 19.5457 83.076ZM16.8157 83.034C16.1157 82.306 15.7657 81.3493 15.7657 80.164C15.7657 78.9787 16.1344 78.022 16.8717 77.294C17.6091 76.5567 18.5331 76.188 19.6437 76.188C20.7544 76.188 21.6784 76.5567 22.4157 77.294C23.1531 78.022 23.5217 78.9787 23.5217 80.164C23.5217 81.34 23.1344 82.2967 22.3597 83.034C21.5944 83.762 20.6564 84.126 19.5457 84.126C18.4351 84.126 17.5251 83.762 16.8157 83.034ZM38.1187 76.314H39.4067L36.9847 84H35.6687L33.9327 77.896L32.1967 84H30.8667L28.4307 76.314H29.7467L31.5247 82.726L33.3307 76.314H34.6467L36.3547 82.74L38.1187 76.314ZM45.8413 82.25C46.3547 81.7273 46.6113 81.032 46.6113 80.164C46.6113 79.296 46.3547 78.6007 45.8413 78.078C45.3373 77.5553 44.726 77.294 44.0073 77.294C43.298 77.294 42.6867 77.546 42.1733 78.05C41.6693 78.554 41.4173 79.24 41.4173 80.108C41.4173 80.976 41.674 81.6807 42.1873 82.222C42.7007 82.7633 43.312 83.034 44.0213 83.034C44.7307 83.034 45.3373 82.7727 45.8413 82.25ZM43.7833 84.126C42.738 84.126 41.8653 83.7527 41.1653 83.006C40.4653 82.25 40.1153 81.2887 40.1153 80.122C40.1153 78.946 40.4607 77.9987 41.1513 77.28C41.8513 76.552 42.7287 76.188 43.7833 76.188C44.4367 76.188 45.006 76.342 45.4913 76.65C45.986 76.958 46.3593 77.3593 46.6113 77.854V76.314H47.8993V84H46.6113V82.432C46.3593 82.936 45.986 83.3467 45.4913 83.664C45.006 83.972 44.4367 84.126 43.7833 84.126ZM51.2582 74.83C51.0902 74.998 50.8849 75.082 50.6422 75.082C50.3996 75.082 50.1942 74.998 50.0262 74.83C49.8676 74.662 49.7882 74.4567 49.7882 74.214C49.7882 73.9713 49.8722 73.766 50.0402 73.598C50.2082 73.43 50.4089 73.346 50.6422 73.346C50.8849 73.346 51.0902 73.43 51.2582 73.598C51.4262 73.766 51.5102 73.9713 51.5102 74.214C51.5102 74.4567 51.4262 74.662 51.2582 74.83ZM49.9982 84V76.314H51.2722V84H49.9982ZM55.8952 82.964H56.9452V84H55.6572C54.3225 84 53.6552 83.342 53.6552 82.026V77.35H52.6612V76.314H53.6552V74.41H54.9432V76.314H56.9312V77.35H54.9432V82.026C54.9432 82.3713 55.0132 82.614 55.1532 82.754C55.2932 82.894 55.5405 82.964 55.8952 82.964ZM59.6118 74.83C59.4438 74.998 59.2384 75.082 58.9958 75.082C58.7531 75.082 58.5478 74.998 58.3798 74.83C58.2211 74.662 58.1418 74.4567 58.1418 74.214C58.1418 73.9713 58.2258 73.766 58.3938 73.598C58.5618 73.43 58.7624 73.346 58.9958 73.346C59.2384 73.346 59.4438 73.43 59.6118 73.598C59.7798 73.766 59.8638 73.9713 59.8638 74.214C59.8638 74.4567 59.7798 74.662 59.6118 74.83ZM58.3518 84V76.314H59.6258V84H58.3518ZM63.0027 76.314V77.56C63.5254 76.6453 64.3607 76.188 65.5087 76.188C66.358 76.188 67.0674 76.4727 67.6367 77.042C68.206 77.602 68.4907 78.4047 68.4907 79.45V84H67.2307V79.66C67.2307 78.8853 67.044 78.2973 66.6707 77.896C66.2974 77.4947 65.7794 77.294 65.1167 77.294C64.4634 77.294 63.9454 77.4947 63.5627 77.896C63.1894 78.2973 63.0027 78.8853 63.0027 79.66V84H61.7287V76.314H63.0027ZM73.6837 84.126C72.6384 84.126 71.7657 83.7527 71.0657 83.006C70.3657 82.25 70.0157 81.2887 70.0157 80.122C70.0157 78.946 70.3611 77.9987 71.0517 77.28C71.7517 76.552 72.6291 76.188 73.6837 76.188C74.3371 76.188 74.9064 76.342 75.3917 76.65C75.8864 76.958 76.2597 77.3593 76.5117 77.854V76.314H77.7997V84.196C77.7997 85.2507 77.4591 86.1093 76.7777 86.772C76.0964 87.444 75.2331 87.78 74.1877 87.78C73.1424 87.78 72.2744 87.5373 71.5837 87.052C70.9024 86.5667 70.5151 85.932 70.4217 85.148H71.6677C71.7891 85.5867 72.0737 85.9507 72.5217 86.24C72.9697 86.5293 73.5251 86.674 74.1877 86.674C74.8504 86.674 75.4011 86.4547 75.8397 86.016C76.2877 85.5867 76.5117 84.98 76.5117 84.196V82.432C76.2597 82.936 75.8864 83.3467 75.3917 83.664C74.9064 83.972 74.3371 84.126 73.6837 84.126ZM75.7417 82.25C76.2551 81.7273 76.5117 81.032 76.5117 80.164C76.5117 79.296 76.2551 78.6007 75.7417 78.078C75.2377 77.5553 74.6264 77.294 73.9077 77.294C73.1984 77.294 72.5871 77.546 72.0737 78.05C71.5697 78.554 71.3177 79.24 71.3177 80.108C71.3177 80.976 71.5744 81.6807 72.0877 82.222C72.6011 82.7633 73.2124 83.034 73.9217 83.034C74.6311 83.034 75.2377 82.7727 75.7417 82.25ZM87.2599 76.314V77.35H85.6499V84H84.3619V77.35H83.3679V76.314H84.3619V75.67C84.3619 74.83 84.5859 74.2187 85.0339 73.836C85.4819 73.4533 86.1866 73.262 87.1479 73.262V74.298C86.5879 74.298 86.1959 74.4053 85.9719 74.62C85.7572 74.8253 85.6499 75.1753 85.6499 75.67V76.314H87.2599ZM91.993 83.076C92.7117 83.076 93.3323 82.8193 93.855 82.306C94.387 81.7833 94.653 81.0647 94.653 80.15C94.653 79.2353 94.401 78.5213 93.897 78.008C93.393 77.4947 92.777 77.238 92.049 77.238C91.3303 77.238 90.7283 77.4947 90.243 78.008C89.7577 78.5213 89.515 79.24 89.515 80.164C89.515 81.0787 89.7483 81.7927 90.215 82.306C90.6817 82.8193 91.2743 83.076 91.993 83.076ZM89.263 83.034C88.563 82.306 88.213 81.3493 88.213 80.164C88.213 78.9787 88.5817 78.022 89.319 77.294C90.0563 76.5567 90.9803 76.188 92.091 76.188C93.2017 76.188 94.1257 76.5567 94.863 77.294C95.6003 78.022 95.969 78.9787 95.969 80.164C95.969 81.34 95.5817 82.2967 94.807 83.034C94.0417 83.762 93.1037 84.126 91.993 84.126C90.8823 84.126 89.9723 83.762 89.263 83.034ZM98.8367 76.314V77.616C99.294 76.664 100.073 76.188 101.175 76.188V77.518H100.839C100.185 77.518 99.686 77.6907 99.3407 78.036C99.0047 78.372 98.8367 78.96 98.8367 79.8V84H97.5627V76.314H98.8367ZM110.078 76.314V77.35H108.468V84H107.18V77.35H106.186V76.314H107.18V75.67C107.18 74.83 107.404 74.2187 107.852 73.836C108.3 73.4533 109.005 73.262 109.966 73.262V74.298C109.406 74.298 109.014 74.4053 108.79 74.62C108.576 74.8253 108.468 75.1753 108.468 75.67V76.314H110.078ZM114.811 83.076C115.53 83.076 116.151 82.8193 116.673 82.306C117.205 81.7833 117.471 81.0647 117.471 80.15C117.471 79.2353 117.219 78.5213 116.715 78.008C116.211 77.4947 115.595 77.238 114.867 77.238C114.149 77.238 113.547 77.4947 113.061 78.008C112.576 78.5213 112.333 79.24 112.333 80.164C112.333 81.0787 112.567 81.7927 113.033 82.306C113.5 82.8193 114.093 83.076 114.811 83.076ZM112.081 83.034C111.381 82.306 111.031 81.3493 111.031 80.164C111.031 78.9787 111.4 78.022 112.137 77.294C112.875 76.5567 113.799 76.188 114.909 76.188C116.02 76.188 116.944 76.5567 117.681 77.294C118.419 78.022 118.787 78.9787 118.787 80.164C118.787 81.34 118.4 82.2967 117.625 83.034C116.86 83.762 115.922 84.126 114.811 84.126C113.701 84.126 112.791 83.762 112.081 83.034ZM123.657 83.076C124.376 83.076 124.996 82.8193 125.519 82.306C126.051 81.7833 126.317 81.0647 126.317 80.15C126.317 79.2353 126.065 78.5213 125.561 78.008C125.057 77.4947 124.441 77.238 123.713 77.238C122.994 77.238 122.392 77.4947 121.907 78.008C121.422 78.5213 121.179 79.24 121.179 80.164C121.179 81.0787 121.412 81.7927 121.879 82.306C122.346 82.8193 122.938 83.076 123.657 83.076ZM120.927 83.034C120.227 82.306 119.877 81.3493 119.877 80.164C119.877 78.9787 120.246 78.022 120.983 77.294C121.72 76.5567 122.644 76.188 123.755 76.188C124.866 76.188 125.79 76.5567 126.527 77.294C127.264 78.022 127.633 78.9787 127.633 80.164C127.633 81.34 127.246 82.2967 126.471 83.034C125.706 83.762 124.768 84.126 123.657 84.126C122.546 84.126 121.636 83.762 120.927 83.034ZM134.449 82.25C134.962 81.7273 135.219 81.032 135.219 80.164C135.219 79.296 134.962 78.6007 134.449 78.078C133.945 77.5553 133.333 77.294 132.615 77.294C131.905 77.294 131.294 77.546 130.781 78.05C130.277 78.554 130.025 79.24 130.025 80.108C130.025 80.976 130.281 81.6807 130.795 82.222C131.308 82.7633 131.919 83.034 132.629 83.034C133.338 83.034 133.945 82.7727 134.449 82.25ZM132.391 84.126C131.345 84.126 130.473 83.7527 129.773 83.006C129.073 82.25 128.723 81.2887 128.723 80.122C128.723 78.946 129.068 77.9987 129.759 77.28C130.459 76.552 131.336 76.188 132.391 76.188C133.044 76.188 133.613 76.342 134.099 76.65C134.593 76.958 134.967 77.3593 135.219 77.854V73.64H136.507V84H135.219V82.432C134.967 82.936 134.593 83.3467 134.099 83.664C133.613 83.972 133.044 84.126 132.391 84.126Z" fill="#838383"/>
</svg>
